<svg xmlns="http://www.w3.org/2000/svg" xmlns:xlink="http://www.w3.org/1999/xlink" version="1.1" width="460" height="70" enable-background="new 0 0 1280 800" xml:space="preserve" style=""><rect id="backgroundrect" width="100%" height="100%" x="0" y="0" fill="none" stroke="none" style="" class=""/>
















<g class="currentLayer" style=""><title>Layer 1</title><path fill="#0072BB" d="M113.5969762802124,9.855019569396973 c0.2010000050067902,0.1330000013113022 0.4009999930858613,0.2520000040531158 0.5989999771118166,0.3849999904632569 " id="svg_1" class="" opacity="1"/><path fill="#0072BB" d="M113.5969762802124,9.855019569396973 c-0.1969999969005585,-0.12200000137090684 -0.3910000026226044,-0.2479999959468842 -0.5910000205039979,-0.37299999594688427 " id="svg_2" class="" opacity="1"/><path fill="#0072BB" d="M112.5809850692749,9.206002235412598 c0.14599999785423287,0.09200000017881396 0.28600001335144054,0.18400000035762792 0.425000011920929,0.27099999785423284 " id="svg_3" class="" opacity="1"/><path fill="#0072BB" d="M112.5809850692749,9.206002235412598 c-0.22499999403953558,-0.1410000026226044 -0.44499999284744274,-0.2630000114440918 -0.6700000166893009,-0.3950000107288361 " id="svg_4" class="" opacity="1"/><path fill="#0072BB" d="M111.4039831161499,8.505013465881348 c0.17299999296665194,0.10499999672174454 0.3400000035762788,0.2039999961853028 0.5099999904632568,0.30700001120567333 " id="svg_5" class="" opacity="1"/><path fill="#0072BB" d="M111.4039831161499,8.505013465881348 c-0.44600000977516185,-0.26600000262260437 -0.8980000019073485,-0.5139999985694887 -1.3500000238418581,-0.7659999728202822 " id="svg_6" class="" opacity="1"/><path fill="#0072BB" d="M110.0540075302124,7.736001014709473 c-2.1589999198913574,-1.190000057220459 -4.38700008392334,-2.2690000534057617 -6.691999912261963,-3.203000068664551 c-0.3499999940395356,-0.14000000059604648 -0.6970000267028811,-0.2779999971389771 -1.0499999523162842,-0.4189999997615814 c-0.2720000147819519,-0.10199999809265137 -0.5440000295639038,-0.2070000022649765 -0.8159999847412108,-0.3050000071525575 c-0.7509999871253968,-0.27900001406669617 -1.503000020980835,-0.5450000166893008 -2.265000104904175,-0.7860000133514405 c-0.034000001847744,-0.014000000432133678 -0.06100000068545343,-0.02099999971687794 -0.0949999988079071,-0.034000001847744 c-5.9780001640319815,-1.937999963760376 -12.347000122070312,-2.989000082015991 -18.97100067138672,-2.989000082015991 c-22.398000717163086,0 -41.987998962402344,11.993000030517578 -52.71699905395508,29.902999877929688 c-0.2720000147819519,0.45300000905990606 -0.5299999713897707,0.9120000004768373 -0.7889999747276305,1.375 c-0.22100000083446508,0.38699999451637274 -0.4379999935626984,0.7710000276565553 -0.6529999971389773,1.1690000295639038 c-3.440999984741211,6.416999816894531 -5.77400016784668,13.52299976348877 -6.743000030517578,21.065000534057617 c-0.027000000700354583,0.21799999475479132 -0.06800000369548799,0.42199999094009405 -0.09799999743700029,0.6399999856948856 c-0.02099999971687794,0.17700000107288363 -0.048000000417232506,0.3670000135898591 -0.06800000369548799,0.5440000295639038 c-0.014000000432133678,0.09600000083446504 -0.02099999971687794,0.17700000107288363 -0.027000000700354583,0.257999986410141 c-0.050999999046325704,0.4079999923706055 -0.09899999946355822,0.8159999847412108 -0.1330000013113022,1.2319999933242798 c-0.014000000432133678,0.10199999809265137 -16.573999404907227,7.664000034332275 -16.573999404907227,7.664000034332275 c-1.2339999675750732,0.4000000059604646 -2.36299991607666,1.2990000247955322 -2.36299991607666,2.6519999504089355 c0,1.7000000476837158 1.3539999723434448,2.8550000190734863 3.0429999828338623,2.8550000190734863 c0.050999999046325704,0 -0.27900001406669617,0.014000000432133678 -0.27900001406669617,0.014000000432133678 l142.4709930419922,-0.014000000432133678 c1.0820000171661377,-0.9850000143051147 1.7480000257492065,-2.3929998874664307 1.7480000257492065,-3.9709999561309814 c0,-2.489000082015991 -1.7039999961853027,-4.563000202178955 -4.001999855041504,-5.169000148773193 c-0.40500000119209295,-0.027000000700354583 -0.7960000038146974,-0.06199999898672105 -1.190000057220459,-0.0949999988079071 c0.0469999983906746,-0.6809999942779542 0.034000001847744,-1.5369999408721924 -0.05799999833106996,-2.625 c-0.0469999983906746,-0.7559999823570253 -0.11900000274181369,-1.5099999904632568 -0.19400000572204593,-2.252000093460083 c-1.8799999952316284,-18.124000549316406 -11.595000267028809,-33.895999908447266 -25.70400047302246,-43.882999420166016 c-0.3910000026226044,-0.2779999971389771 -0.7889999747276305,-0.5469999909400941 -1.190000057220459,-0.8180000185966493 c-0.14599999785423287,-0.10000000149011612 -0.2960000038146974,-0.2049999982118607 -0.44900000095367437,-0.300000011920929 " id="svg_7" class="" opacity="1"/><path fill="#C4BE37" d="M19.054984092712402,54.92801761627197 c0.007000000216066839,-0.0810000002384186 0.019999999552965168,-0.17000000178813934 0.027000000700354583,-0.2590000033378602 c0.024000000208616257,-0.17700000107288363 0.05799999833106996,-0.3670000135898591 0.07900000363588335,-0.5440000295639038 c0.027000000700354583,-0.21799999475479132 0.06100000068545343,-0.4210000038146974 0.09200000017881396,-0.6399999856948856 " id="svg_8" class="" opacity="1"/><path fill="#FFFFFF" d="M19.136984825134277,54.2000207901001 l0.11200000345706942,-0.7149999737739564 c7.793000221252441,-0.18899999558925637 15.675999641418457,-1.1069999933242798 23.582000732421875,-2.8280000686645512 c27.159000396728516,-5.918000221252441 50.29199981689453,-20.2810001373291 67.25700378417969,-39.737998962402344 c-13.112000465393066,8.949999809265137 -28.135000228881836,15.583999633789062 -44.604000091552734,19.172000885009766 c-13.322999954223633,2.9040000438690186 -26.61199951171875,3.5880000591278076 -39.486000061035156,2.3259999752044678 c0.20800000429153442,-0.3980000019073488 0.42899999022483837,-0.7789999842643739 0.6460000276565554,-1.1699999570846558 c0.26499998569488536,-0.45899999141693115 0.5230000019073484,-0.9179999828338624 0.7919999957084656,-1.3630000352859497 c12.23799991607666,1.0779999494552612 24.8439998626709,0.35400000214576727 37.483001708984375,-2.3970000743865967 c16.733999252319336,-3.6419999599456787 31.944000244140625,-10.494000434875488 45.12699890136719,-19.777000427246094 c0.4519999921321869,0.24899999797344213 0.8970000147819519,0.5070000290870665 1.3500000238418581,0.7720000147819518 c0.16699999570846566,0.09799999743700029 0.3330000042915344,0.20299999415874484 0.5099999904632568,0.2989999949932099 c0.22100000083446508,0.14000000059604648 0.44499999284744274,0.26600000262260437 0.6600000262260438,0.3980000019073488 c0.14599999785423287,0.09200000017881396 0.28600001335144054,0.1870000064373017 0.43200001120567333,0.27099999785423284 c0.1969999969005585,0.1260000020265579 0.3910000026226044,0.2479999959468842 0.584999978542328,0.38100001215934765 c0.2039999961853028,0.1260000020265579 0.40400001406669617,0.2520000040531158 0.6050000190734866,0.3849999904632569 c0.14599999785423287,0.09799999743700029 0.2989999949932099,0.20000000298023224 0.44499999284744274,0.2989999949932099 c0.40500000119209295,0.27099999785423284 0.7960000038146974,0.5440000295639038 1.1940000057220461,0.822000026702881 c-11.241999626159668,24.26300048828125 -30.05699920654297,44.827999114990234 -54.0629997253418,58.03499984741211 l-2.996000051498413,0.027000000700354583 l-2.7650001049041752,-0.027000000700354583 c24.924999237060547,-12.418000221252441 44.606998443603516,-32.76599884033203 56.41699981689453,-57.07600021362305 c-17.35300064086914,20.06599998474121 -41.108001708984375,34.88600158691406 -69.02899932861328,40.96500015258789 c-8.194999694824219,1.7829999923706057 -16.386999130249023,2.7290000915527344 -24.469999313354492,2.8980000019073486 c0.04100000113248826,-0.41600000858306885 0.08799999952316286,-0.9449999928474426 0.14000000059604648,-1.3539999723434448 L19.136984825134277,54.2000207901001 z" id="svg_9" class="" opacity="1"/><path fill="#71777A" d="M282.98998165130615,39.77600955963135 c0.6930000185966494,-3.440999984741211 1.3070000410079956,-6.821000099182129 1.6879999637603762,-10.42300033569336 h12.805000305175781 l-1.0800000429153442,6.51200008392334 h0.1620000004768372 c3.9860000610351562,-4.440000057220459 8.121000289916992,-7.429999828338623 15.404000282287598,-7.429999828338623 c8.053000450134277,0 12.418000221252441,5.974999904632568 12.418000221252441,13.795999526977539 c0,2.687000036239624 -0.2300000041723252,4.223999977111816 -1.0740000009536743,8.432999610900879 l-3.680000066757202,18.628000259399414 h-14.253999710083008 l3.8359999656677246,-18.70199966430664 c0.38100001215934765,-1.9919999837875366 0.9179999828338624,-3.984999895095825 0.9179999828338624,-6.059999942779541 c0,-2.374000072479248 -1.531000018119812,-4.754000186920166 -5.364999771118164,-4.5980000495910645 c-5.829999923706055,0 -9.277000427246094,5.053999900817871 -10.270000457763672,10.963000297546387 l-3.9179999828338623,18.395999908447266 h-13.793000221252441 L282.98998165130615,39.77600955963135 z" id="svg_10" class="" opacity="1"/><path fill="#71777A" d="M329.20299434661865,58.7160120010376 c3.5290000438690186,1.5299999713897707 7.3520002365112305,2.2990000247955322 11.187999725341797,2.2990000247955322 c2.2300000190734863,0 7.751999855041504,-0.23100000619888306 7.751999855041504,-3.5230000019073486 c0,-5.677999973297119 -16.483999252319336,-2.7539999485015874 -16.483999252319336,-15.946999549865723 c0,-9.354999542236328 10.880999565124512,-13.109000205993652 20.1560001373291,-13.109000205993652 c3.4549999237060547,0 8.282999992370605,0.768999993801117 13.26200008392334,2.377000093460083 l-2.9100000858306885,9.038999557495117 c-3.5230000019073486,-1.4559999704360962 -6.895999908447266,-2.2109999656677246 -11.031000137329102,-2.2109999656677246 c-3.0739998817443848,0 -6.447000026702881,0.688000023365021 -6.447000026702881,3.440999984741211 c0,4.447000026702881 17.24799919128418,4.1479997634887695 17.24799919128418,14.180000305175781 c0,9.888999938964844 -8.35200023651123,14.798999786376953 -18.702999114990234,14.954999923706055 c-6.052999973297119,0.07500000298023227 -12.5,-0.8439999818801881 -16.78499984741211,-2.066999912261963 L329.20299434661865,58.7160120010376 z" id="svg_11" class="" opacity="1"/><path fill="#71777A" d="M389.07799434661865,59.63401126861572 c6.507999897003174,0 10.423999786376953,-6.209000110626221 10.423999786376953,-12.418000221252441 c0,-4.9039998054504395 -2.2170000076293945,-8.20199966430664 -6.5960001945495605,-8.20199966430664 c-6.515999794006348,0 -10.420000076293945,7.209000110626221 -10.420000076293945,12.5 C382.48595333099365,55.56800174713135 384.4719762802124,59.63401126861572 389.07799434661865,59.63401126861572 M363.93297481536865,69.29801273345947 c0.9120000004768373,-2.5369999408721924 1.8380000591278076,-5.984000205993652 2.75600004196167,-9.963000297546387 l10.574000358581543,-47.53499984741211 h13.574000358581543 l-4.984000205993652,22.385000228881836 h0.15600000321865082 c3.4549999237060547,-3.678999900817871 7.664000034332275,-5.752999782562256 12.875,-5.752999782562256 c9.812999725341797,0 14.873000144958496,7.514999866485597 14.873000144958496,16.485000610351562 c0,13.111000061035156 -6.584000110626221,25.298999786376953 -21.00200080871582,25.298999786376953 c-6.820000171661377,0 -11.425999641418457,-2.7609999179840092 -13.880999565124512,-8.434000015258789 h-0.15600000321865082 L376.73400020599365,69.29801273345947 H363.93297481536865 " id="svg_12" class="" opacity="1"/><path fill="#71777A" d="M435.15196895599365,61.01502323150635 c5.895999908447266,0 9.420000076293945,-4.065999984741211 10.420000076293945,-9.434000015258789 c-1.156000018119812,-0.22499999403953558 -2.8440001010894775,-0.22499999403953558 -3.686000108718872,-0.22499999403953558 c-6.5900001525878915,-0.2300000041723252 -11.411999702453613,2.1429998874664307 -11.411999702453613,5.665999889373779 C430.47399044036865,58.86499881744385 432.2279577255249,61.01502323150635 435.15196895599365,61.01502323150635 M444.3419713973999,63.7000207901001 l-0.15600000321865082,-0.15600000321865082 v0.15600000321865082 c-2.9119999408721924,4.5980000495910645 -8.04699993133545,6.515999794006348 -13.411999702453613,6.515999794006348 c-8.581999778747559,0 -13.343999862670898,-3.8359999656677246 -13.343999862670898,-11.581999778747559 c0,-9.807000160217285 9.819999694824219,-14.642999649047852 22.007999420166016,-14.642999649047852 c2.76200008392334,0 5.5229997634887695,0.2319999933242798 7.434000015258789,0.3889999985694886 c0.15600000321865082,-0.5370000004768373 0.15600000321865082,-1.0740000009536743 0.15600000321865082,-1.6119999885559082 c0,-2.8289999961853027 -2.8420000076293945,-5.127999782562256 -7.364999771118164,-5.127999782562256 c-4.979000091552734,0 -8.343999862670898,0.7549999952316285 -12.954999923706055,3.1429998874664307 l1.3869999647140503,-10.045000076293945 c4.060999870300293,-1.3810000419616701 8.425999641418457,-2.305999994277954 14.635000228881836,-2.305999994277954 c9.508000373840332,0 17.329999923706055,3.7609999179840092 17.329999923706055,13.574000358581543 c0,6.283999919891357 -3.5230000019073486,15.246999740600586 -5.060999870300293,27.28499984741211 h-11.270000457763672 L444.3419713973999,63.7000207901001 " id="svg_13" class="" opacity="1"/><polygon fill="#71777A" points="179.17796993255615,26.364022254943848 165.8419713973999,26.364022254943848 168.14000606536865,15.785012245178223 209.31297969818115,15.785012245178223 207.0079870223999,26.364022254943848 193.6639928817749,26.364022254943848 184.54796504974365,69.29801273345947 170.0549840927124,69.29801273345947 " id="svg_14" class="" opacity="1"/><path fill="#71777A" d="M216.6069860458374,29.353005409240723 l-1.534000039100647,8.204999923706055 h0.1529999971389771 c2.2239999771118164,-4.671999931335449 6.671999931335449,-9.123000144958496 12.34000015258789,-9.123000144958496 c1.840000033378601,0 3.992000102996826,0.23100000619888306 5.831999778747559,0.9959999918937683 l-3.1419999599456787,12.187999725341797 c-1.7680000066757204,-1.3810000419616701 -3.7609999179840092,-1.6870000362396242 -6.364999771118164,-1.6870000362396242 c-5.828999996185303,0 -9.276000022888184,5.053999900817871 -10.27299976348877,10.963000297546387 l-3.9140000343322754,18.395999908447266 h-13.795999526977539 l6.2129998207092285,-29.516000747680664 c0.6899999976158145,-3.440999984741211 1.3020000457763672,-6.821000099182129 1.6870000362396242,-10.42300033569336 H216.6069860458374 z" id="svg_15" class="" opacity="1"/><path fill="#71777A" d="M248.3469762802124,61.01502323150635 c5.9019999504089355,0 9.425999641418457,-4.065999984741211 10.418000221252441,-9.434000015258789 c-1.1430000066757202,-0.22499999403953558 -2.8299999237060547,-0.22499999403953558 -3.671999931335449,-0.22499999403953558 c-6.5980000495910645,-0.2300000041723252 -11.425999641418457,2.1429998874664307 -11.425999641418457,5.665999889373779 C243.66796016693115,58.86499881744385 245.4349889755249,61.01502323150635 248.3469762802124,61.01502323150635 M257.54100704193115,63.7000207901001 l-0.14800000190734866,-0.15600000321865082 v0.15600000321865082 c-2.9110000133514404,4.5980000495910645 -8.053000450134277,6.515999794006348 -13.411999702453613,6.515999794006348 c-8.593000411987305,0 -13.345999717712402,-3.8359999656677246 -13.345999717712402,-11.581999778747559 c0,-9.807000160217285 9.8100004196167,-14.642999649047852 22.003999710083008,-14.642999649047852 c2.7539999485015874,0 5.515999794006348,0.2319999933242798 7.434000015258789,0.3889999985694886 c0.14800000190734866,-0.5370000004768373 0.14800000190734866,-1.0740000009536743 0.14800000190734866,-1.6119999885559082 c0,-2.8289999961853027 -2.8280000686645512,-5.127999782562256 -7.35699987411499,-5.127999782562256 c-4.979000091552734,0 -8.35200023651123,0.7549999952316285 -12.956000328063965,3.1429998874664307 l1.3880000114440918,-10.045000076293945 c4.059999942779541,-1.3810000419616701 8.425999641418457,-2.305999994277954 14.640999794006348,-2.305999994277954 c9.501999855041504,0 17.32200050354004,3.7609999179840092 17.32200050354004,13.574000358581543 c0,6.283999919891357 -3.5290000438690186,15.246999740600586 -5.065999984741211,27.28499984741211 h-11.26200008392334 L257.54100704193115,63.7000207901001 " id="svg_16" class="" opacity="1"/></g></svg>