<svg xmlns="http://www.w3.org/2000/svg" xmlns:xlink="http://www.w3.org/1999/xlink" version="1.1" width="516" height="118" enable-background="new 0 0 1280 800" xml:space="preserve" style=""><rect id="backgroundrect" width="100%" height="100%" x="0" y="0" fill="none" stroke="none" style="" class=""/>

<g class="currentLayer" style=""><title>Layer 1</title><g id="svg_1" class="">
	<polygon fill="#71777A" points="148.12206077575684,48.62828969955444 134.7390651702881,48.62828969955444 137.04405784606934,38.00930166244507 178.35207176208496,38.00930166244507 176.04006004333496,48.62828969955444 162.6580410003662,48.62828969955444 153.5070400238037,91.6932921409607 138.96605491638184,91.6932921409607 " id="svg_2"/>
	<path fill="#71777A" d="M185.6720790863037,51.61730337142944 l-1.5399999618530273,8.237000465393066 h0.15500000119209295 c2.2260000705718994,-4.692999839782715 6.693999767303467,-9.149999618530273 12.383000373840332,-9.149999618530273 c1.8450000286102295,0 3.996999979019165,0.222000002861023 5.848999977111816,0.9900000095367432 l-3.1549999713897705,12.229000091552734 c-1.7719999551773071,-1.3839999437332153 -3.7699999809265137,-1.6879999637603762 -6.386000156402588,-1.6879999637603762 c-5.8460001945495605,0 -9.305999755859375,5.080999851226807 -10.305999755859375,10.998000144958496 L178.74709129333496,91.6932921409607 h-13.843999862670898 l6.229000091552734,-29.617000579833984 c0.6959999799728396,-3.4539999961853027 1.305999994277954,-6.8379998207092285 1.6959999799728396,-10.458999633789062 H185.6720790863037 z" id="svg_3"/>
	<path fill="#71777A" d="M216.2510585784912,83.38729238510132 c5.925000190734863,0 9.454999923706055,-4.083000183105469 10.458999633789062,-9.454000473022461 c-1.156000018119812,-0.23600000143051147 -2.8450000286102295,-0.23600000143051147 -3.6889998912811284,-0.23600000143051147 c-6.617000102996826,-0.22800000011920935 -11.461999893188477,2.1459999084472656 -11.461999893188477,5.696000099182129 C211.5590419769287,81.2352843284607 213.3300380706787,83.38729238510132 216.2510585784912,83.38729238510132 M225.47707176208496,86.08730459213257 l-0.14499999582767495,-0.15899999439716347 v0.15899999439716347 c-2.936000108718872,4.610000133514404 -8.085000038146973,6.533999919891357 -13.470999717712402,6.533999919891357 c-8.61299991607666,0 -13.383000373840332,-3.8489999771118164 -13.383000373840332,-11.61400032043457 c0,-9.850000381469727 9.847000122070312,-14.701000213623047 22.07699966430664,-14.701000213623047 c2.7690000534057617,0 5.5370001792907715,0.23499999940395358 7.4619998931884775,0.3950000107288361 c0.15099999308586126,-0.5469999909400941 0.15099999308586126,-1.0729999542236328 0.15099999308586126,-1.6119999885559082 c0,-2.8529999256134033 -2.836999893188477,-5.1570000648498535 -7.377999782562256,-5.1570000648498535 c-5.005000114440918,0 -8.388999938964844,0.768999993801117 -13.005999565124512,3.1489999294281006 l1.3910000324249268,-10.064000129699707 c4.071000099182129,-1.3910000324249268 8.458999633789062,-2.312000036239624 14.687999725341797,-2.312000036239624 c9.538000106811523,0 17.386999130249023,3.7650001049041752 17.386999130249023,13.61400032043457 c0,6.307000160217285 -3.5429999828338623,15.289999961853027 -5.079999923706055,27.375 h-11.310999870300293 L225.47707176208496,86.08730459213257 " id="svg_4"/>
	<path fill="#71777A" d="M251.0120449066162,62.08330678939819 c0.6980000138282778,-3.4609999656677246 1.3140000104904175,-6.8520002365112305 1.6959999799728396,-10.451000213623047 h12.83899974822998 l-1.0729999542236328,6.5329999923706055 h0.14599999785423287 c4.007999897003174,-4.456999778747559 8.15999984741211,-7.4679999351501465 15.470000267028809,-7.4679999351501465 c8.069999694824219,0 12.458999633789062,6.000999927520752 12.458999633789062,13.843000411987305 c0,2.6919999122619633 -0.22900000214576724,4.243000030517578 -1.0729999542236328,8.46500015258789 l-3.6949999332427983,18.69499969482422 h-14.314000129699707 l3.8489999771118164,-18.777000427246094 c0.38800001144409185,-1.99399995803833 0.9269999861717225,-3.99399995803833 0.9269999861717225,-6.071000099182129 c0,-2.3870000839233403 -1.5360000133514404,-4.769000053405762 -5.383999824523926,-4.616000175476074 c-5.8429999351501465,0 -9.303000450134277,5.080999851226807 -10.300000190734863,11.005999565124512 l-3.931999921798706,18.458999633789062 h-13.843000411987305 L251.0120449066162,62.08330678939819 z" id="svg_5"/>
	<path fill="#71777A" d="M296.74904441833496,81.07628774642944 c3.5299999713897705,1.5429999828338623 7.379000186920166,2.312000036239624 11.22700023651123,2.312000036239624 c2.2290000915527344,0 7.765999794006348,-0.23499999940395358 7.765999794006348,-3.5439999103546143 c0,-5.689000129699707 -16.54199981689453,-2.76200008392334 -16.54199981689453,-15.98799991607666 c0,-9.38700008392334 10.92300033569336,-13.151000022888184 20.238000869750977,-13.151000022888184 c3.4609999656677246,0 8.307000160217285,0.7620000243186953 13.303999900817871,2.38100004196167 l-2.9210000038146973,9.081000328063965 c-3.5439999103546143,-1.4670000076293945 -6.921999931335449,-2.234999895095825 -11.081000328063965,-2.234999895095825 c-3.065999984741211,0 -6.458000183105469,0.6850000023841861 -6.458000183105469,3.4609999656677246 c0,4.456999778747559 17.304000854492188,4.1529998779296875 17.304000854492188,14.229999542236328 c0,9.918000221252441 -8.381999969482422,14.847000122070312 -18.764999389648438,14.99899959564209 c-6.068999767303467,0.07599999755620958 -12.53499984741211,-0.8519999980926515 -16.847000122070312,-2.0759999752044678 L296.74904441833496,81.07628774642944 z" id="svg_6"/>
	<path fill="#71777A" d="M366.12404441833496,67.84829092025757 c0,-4.313000202178955 -1.6959999799728396,-7.918000221252441 -6.769999980926514,-7.918000221252441 c-6.000999927520752,0 -9.22700023651123,4.068999767303467 -10.229000091552734,7.918000221252441 H366.12404441833496 zM369.8120937347412,90.3912901878357 c-4.84499979019165,1.4539999961853027 -9.994000434875488,2.2290000915527344 -13.994999885559082,2.2290000915527344 c-13.38700008392334,0 -20.618999481201172,-8.236000061035156 -20.618999481201172,-18.308000564575195 c0,-9.3100004196167 6.159999847412109,-23.615999221801758 23.996999740600586,-23.615999221801758 c10.541000366210938,0 18.466999053955078,5.309000015258789 18.466999053955078,17.46299934387207 c0,1.6050000190734866 -0.4709999859333039,5.150000095367432 -0.9959999918937683,7.53000020980835 h-28.39299964904785 c0.1580000072717667,4.313000202178955 2.305000066757202,7.697000026702881 10.770999908447266,7.697000026702881 c3.6949999332427983,0 8.692000389099121,-0.9279999732971193 12.539999961853027,-2.7690000534057617 L369.8120937347412,90.3912901878357 " id="svg_7"/>
	<path fill="#71777A" d="M386.5010585784912,62.08330678939819 c0.6980000138282778,-3.4609999656677246 1.309000015258789,-6.8520002365112305 1.6959999799728396,-10.451000213623047 h12.845999717712402 l-1.0800000429153442,6.5329999923706055 h0.1529999971389771 c4,-4.456999778747559 8.152999877929688,-7.4679999351501465 15.461999893188477,-7.4679999351501465 c8.07800006866455,0 12.458999633789062,6.000999927520752 12.458999633789062,13.843000411987305 c0,2.6919999122619633 -0.23499999940395358,4.243000030517578 -1.0800000429153442,8.46500015258789 l-3.696000099182129,18.69499969482422 h-14.298999786376953 l3.8410000801086426,-18.777000427246094 c0.3950000107288361,-1.99399995803833 0.935000002384186,-3.99399995803833 0.935000002384186,-6.071000099182129 c0,-2.3870000839233403 -1.5509999990463257,-4.769000053405762 -5.392000198364258,-4.616000175476074 c-5.849999904632568,0 -9.3100004196167,5.080999851226807 -10.307000160217285,11.005999565124512 l-3.9170000553131104,18.458999633789062 h-13.85099983215332 L386.5010585784912,62.08330678939819 z" id="svg_8"/>
	<path fill="#71777A" d="M464.4170742034912,67.84829092025757 c0,-4.313000202178955 -1.6879999637603762,-7.918000221252441 -6.769999980926514,-7.918000221252441 c-5.99399995803833,0 -9.232999801635742,4.068999767303467 -10.229999542236328,7.918000221252441 H464.4170742034912 zM468.1060390472412,90.3912901878357 c-4.839000225067139,1.4539999961853027 -10.001999855041504,2.2290000915527344 -13.996000289916992,2.2290000915527344 c-13.392999649047852,0 -20.61199951171875,-8.236000061035156 -20.61199951171875,-18.308000564575195 c0,-9.3100004196167 6.1529998779296875,-23.615999221801758 23.996999740600586,-23.615999221801758 c10.541999816894531,0 18.458999633789062,5.309000015258789 18.458999633789062,17.46299934387207 c0,1.6050000190734866 -0.46299999952316284,5.150000095367432 -1.0019999742507935,7.53000020980835 h-28.378999710083008 c0.1519999951124192,4.313000202178955 2.305000066757202,7.697000026702881 10.755999565124512,7.697000026702881 c3.696000099182129,0 8.699999809265137,-0.9279999732971193 12.548999786376953,-2.7690000534057617 L468.1060390472412,90.3912901878357 " id="svg_9"/>
	<path fill="#71777A" d="M498.9280605316162,51.61730337142944 l-1.5360000133514404,8.237000465393066 h0.1519999951124192 c2.2290000915527344,-4.692999839782715 6.685999870300293,-9.149999618530273 12.375,-9.149999618530273 c1.8550000190734866,0 4.000999927520752,0.222000002861023 5.855000019073486,0.9900000095367432 l-3.1559998989105225,12.229000091552734 c-1.7710000276565552,-1.3839999437332153 -3.7709999084472656,-1.6879999637603762 -6.388999938964844,-1.6879999637603762 c-5.834000110626221,0 -9.295000076293945,5.080999851226807 -10.305999755859375,10.998000144958496 L492.0070400238037,91.6932921409607 h-13.85099983215332 l6.229000091552734,-29.617000579833984 c0.6980000138282778,-3.4539999961853027 1.309000015258789,-6.8379998207092285 1.6959999799728396,-10.458999633789062 H498.9280605316162 z" id="svg_10"/>
	
		<rect x="902.6513801097803" y="403.18676315488875" transform="matrix(-0.7071,-0.7071,0.7071,-0.7071,412.232,1041.48) " fill="#0072BB" width="83.5250015258789" height="83.5260009765625" id="svg_11"/>
	<polygon fill="#FFFFFF" points="28.18807029724121,40.96529531478882 61.267080307006836,40.96529531478882 44.739065170288086,85.1043028831482 " id="svg_12"/>
	<polygon fill="#FFFFFF" points="63.392080307006836,48.19829702377319 84.51405906677246,48.19829702377319 73.96108055114746,76.38228750228882 " id="svg_13"/>
	<polygon fill="#FFFFFF" points="87.49706077575684,53.17427968978882 100.19106101989746,53.17427968978882 93.84706687927246,70.11229848861694 " id="svg_14"/>
</g></g></svg>