<?xml version="1.0" encoding="utf-8"?>
<!-- Generator: Adobe Illustrator 22.1.0, SVG Export Plug-In . SVG Version: 6.00 Build 0)  -->
<svg version="1.1" id="Capa_1" xmlns="http://www.w3.org/2000/svg" xmlns:xlink="http://www.w3.org/1999/xlink" x="0px" y="0px"
	 viewBox="0 0 1116 142.9" style="enable-background:new 0 0 1116 142.9;" xml:space="preserve">
<style type="text/css">
	.st0{fill:none;}
	.st1{fill:#71777A;}
	.st2{fill:#0072BB;}
	.st3{fill:#FFFFFF;}
	.st4{fill:#C4BE37;}
</style>
<rect id="backgroundrect" x="33" y="9.4" class="st0" width="516" height="118"/>
<g>
	<title>Layer 1</title>
	<g id="svg_1">
		<polygon id="svg_2" class="st1" points="181.1,58 167.7,58 170,47.4 211.3,47.4 209,58 195.6,58 186.5,101.1 171.9,101.1 		"/>
		<path id="svg_3" class="st1" d="M218.6,61l-1.5,8.2h0.2c2.2-4.7,6.7-9.2,12.4-9.2c1.8,0,4,0.2,5.8,1l-3.2,12.2
			c-1.8-1.4-3.8-1.7-6.4-1.7c-5.8,0-9.3,5.1-10.3,11l-3.9,18.5h-13.8l6.2-29.6c0.7-3.5,1.3-6.8,1.7-10.5L218.6,61L218.6,61z"/>
		<path id="svg_4" class="st1" d="M249.2,92.8c5.9,0,9.5-4.1,10.5-9.5c-1.2-0.2-2.8-0.2-3.7-0.2c-6.6-0.2-11.5,2.1-11.5,5.7
			C244.5,90.6,246.3,92.8,249.2,92.8 M258.4,95.5l-0.1-0.2v0.2c-2.9,4.6-8.1,6.5-13.5,6.5c-8.6,0-13.4-3.8-13.4-11.6
			c0-9.8,9.8-14.7,22.1-14.7c2.8,0,5.5,0.2,7.5,0.4c0.2-0.5,0.2-1.1,0.2-1.6c0-2.9-2.8-5.2-7.4-5.2c-5,0-8.4,0.8-13,3.1l1.4-10.1
			c4.1-1.4,8.5-2.3,14.7-2.3c9.5,0,17.4,3.8,17.4,13.6c0,6.3-3.5,15.3-5.1,27.4h-11.3L258.4,95.5"/>
		<path id="svg_5" class="st1" d="M284,71.5c0.7-3.5,1.3-6.9,1.7-10.5h12.8l-1.1,6.5h0.1c4-4.5,8.2-7.5,15.5-7.5
			c8.1,0,12.5,6,12.5,13.8c0,2.7-0.2,4.2-1.1,8.5l-3.7,18.7h-14.3l3.8-18.8c0.4-2,0.9-4,0.9-6.1c0-2.4-1.5-4.8-5.4-4.6
			c-5.8,0-9.3,5.1-10.3,11l-3.9,18.5h-13.8L284,71.5z"/>
		<path id="svg_6" class="st1" d="M329.7,90.4c3.5,1.5,7.4,2.3,11.2,2.3c2.2,0,7.8-0.2,7.8-3.5c0-5.7-16.5-2.8-16.5-16
			c0-9.4,10.9-13.2,20.2-13.2c3.5,0,8.3,0.8,13.3,2.4l-2.9,9.1c-3.5-1.5-6.9-2.2-11.1-2.2c-3.1,0-6.5,0.7-6.5,3.5
			c0,4.5,17.3,4.2,17.3,14.2c0,9.9-8.4,14.8-18.8,15c-6.1,0.1-12.5-0.9-16.8-2.1L329.7,90.4z"/>
		<path id="svg_7" class="st1" d="M399.1,77.2c0-4.3-1.7-7.9-6.8-7.9c-6,0-9.2,4.1-10.2,7.9H399.1z M402.8,99.8
			c-4.8,1.5-10,2.2-14,2.2c-13.4,0-20.6-8.2-20.6-18.3c0-9.3,6.2-23.6,24-23.6c10.5,0,18.5,5.3,18.5,17.5c0,1.6-0.5,5.2-1,7.5h-28.4
			c0.2,4.3,2.3,7.7,10.8,7.7c3.7,0,8.7-0.9,12.5-2.8L402.8,99.8"/>
		<path id="svg_8" class="st1" d="M419.5,71.5c0.7-3.5,1.3-6.9,1.7-10.5H434l-1.1,6.5h0.2c4-4.5,8.2-7.5,15.5-7.5
			c8.1,0,12.5,6,12.5,13.8c0,2.7-0.2,4.2-1.1,8.5l-3.7,18.7h-14.3l3.8-18.8c0.4-2,0.9-4,0.9-6.1c0-2.4-1.6-4.8-5.4-4.6
			c-5.9,0-9.3,5.1-10.3,11l-3.9,18.5h-13.9L419.5,71.5z"/>
		<path id="svg_9" class="st1" d="M497.4,77.2c0-4.3-1.7-7.9-6.8-7.9c-6,0-9.2,4.1-10.2,7.9H497.4z M501.1,99.8
			c-4.8,1.5-10,2.2-14,2.2c-13.4,0-20.6-8.2-20.6-18.3c0-9.3,6.2-23.6,24-23.6c10.5,0,18.5,5.3,18.5,17.5c0,1.6-0.5,5.2-1,7.5h-28.4
			c0.2,4.3,2.3,7.7,10.8,7.7c3.7,0,8.7-0.9,12.5-2.8L501.1,99.8"/>
		<path id="svg_10" class="st1" d="M531.9,61l-1.5,8.2h0.2c2.2-4.7,6.7-9.2,12.4-9.2c1.9,0,4,0.2,5.9,1l-3.2,12.2
			c-1.8-1.4-3.8-1.7-6.4-1.7c-5.8,0-9.3,5.1-10.3,11l-3.9,18.5h-13.9l6.2-29.6c0.7-3.5,1.3-6.8,1.7-10.5L531.9,61L531.9,61z"/>
		
			<rect id="svg_11" x="50.3" y="26.7" transform="matrix(0.7071 -0.7071 0.7071 0.7071 -21.4327 85.1186)" class="st2" width="83.5" height="83.5"/>
		<polygon id="svg_12" class="st3" points="61.2,50.3 94.2,50.3 77.7,94.5 		"/>
		<polygon id="svg_13" class="st3" points="96.4,57.6 117.5,57.6 106.9,85.8 		"/>
		<polygon id="svg_14" class="st3" points="120.5,62.5 133.2,62.5 126.8,79.5 		"/>
	</g>
</g>
<rect id="backgroundrect_1_" x="623" y="31.3" class="st0" width="460" height="70"/>
<g>
	<title>Layer 1</title>
	<path id="svg_1_1_" class="st2" d="M736.6,41.1c0.2,0.1,0.4,0.3,0.6,0.4"/>
	<path id="svg_2_1_" class="st2" d="M736.6,41.1c-0.2-0.1-0.4-0.2-0.6-0.4"/>
	<path id="svg_3_1_" class="st2" d="M735.6,40.5c0.1,0.1,0.3,0.2,0.4,0.3"/>
	<path id="svg_4_1_" class="st2" d="M735.6,40.5c-0.2-0.1-0.4-0.3-0.7-0.4"/>
	<path id="svg_5_1_" class="st2" d="M734.4,39.8c0.2,0.1,0.3,0.2,0.5,0.3"/>
	<path id="svg_6_1_" class="st2" d="M734.4,39.8c-0.4-0.3-0.9-0.5-1.3-0.8"/>
	<path id="svg_7_1_" class="st2" d="M733,39c-2.2-1.2-4.4-2.3-6.7-3.2c-0.4-0.1-0.7-0.3-1.1-0.4c-0.3-0.1-0.5-0.2-0.8-0.3
		c-0.8-0.3-1.5-0.5-2.3-0.8c0,0-0.1,0-0.1,0c-6-1.9-12.3-3-19-3c-22.4,0-42,12-52.7,29.9c-0.3,0.5-0.5,0.9-0.8,1.4
		c-0.2,0.4-0.4,0.8-0.7,1.2c-3.4,6.4-5.8,13.5-6.7,21.1c0,0.2-0.1,0.4-0.1,0.6c0,0.2,0,0.4-0.1,0.5c0,0.1,0,0.2,0,0.3
		c-0.1,0.4-0.1,0.8-0.1,1.2c0,0.1-16.6,7.7-16.6,7.7c-1.2,0.4-2.4,1.3-2.4,2.7c0,1.7,1.4,2.9,3,2.9c0.1,0-0.3,0-0.3,0l142.5,0
		c1.1-1,1.7-2.4,1.7-4c0-2.5-1.7-4.6-4-5.2c-0.4,0-0.8-0.1-1.2-0.1c0-0.7,0-1.5-0.1-2.6c0-0.8-0.1-1.5-0.2-2.3
		c-1.9-18.1-11.6-33.9-25.7-43.9c-0.4-0.3-0.8-0.5-1.2-0.8c-0.1-0.1-0.3-0.2-0.4-0.3"/>
	<path id="svg_8_1_" class="st4" d="M642,86.2c0-0.1,0-0.2,0-0.3c0-0.2,0.1-0.4,0.1-0.5c0-0.2,0.1-0.4,0.1-0.6"/>
	<path id="svg_9_1_" class="st3" d="M642.1,85.5l0.1-0.7c7.8-0.2,15.7-1.1,23.6-2.8c27.2-5.9,50.3-20.3,67.3-39.7
		c-13.1,9-28.1,15.6-44.6,19.2c-13.3,2.9-26.6,3.6-39.5,2.3c0.2-0.4,0.4-0.8,0.6-1.2c0.3-0.5,0.5-0.9,0.8-1.4
		c12.2,1.1,24.8,0.4,37.5-2.4c16.7-3.6,31.9-10.5,45.1-19.8c0.5,0.2,0.9,0.5,1.3,0.8c0.2,0.1,0.3,0.2,0.5,0.3
		c0.2,0.1,0.4,0.3,0.7,0.4c0.1,0.1,0.3,0.2,0.4,0.3c0.2,0.1,0.4,0.2,0.6,0.4c0.2,0.1,0.4,0.3,0.6,0.4c0.1,0.1,0.3,0.2,0.4,0.3
		c0.4,0.3,0.8,0.5,1.2,0.8c-11.2,24.3-30.1,44.8-54.1,58l-3,0l-2.8,0c24.9-12.4,44.6-32.8,56.4-57.1c-17.4,20.1-41.1,34.9-69,41
		c-8.2,1.8-16.4,2.7-24.5,2.9c0-0.4,0.1-0.9,0.1-1.4L642.1,85.5z"/>
	<path id="svg_10_1_" class="st1" d="M906,71c0.7-3.4,1.3-6.8,1.7-10.4h12.8l-1.1,6.5h0.2c4-4.4,8.1-7.4,15.4-7.4
		c8.1,0,12.4,6,12.4,13.8c0,2.7-0.2,4.2-1.1,8.4l-3.7,18.6h-14.3l3.8-18.7c0.4-2,0.9-4,0.9-6.1c0-2.4-1.5-4.8-5.4-4.6
		c-5.8,0-9.3,5.1-10.3,11l-3.9,18.4h-13.8L906,71z"/>
	<path id="svg_11_1_" class="st1" d="M952.2,90c3.5,1.5,7.4,2.3,11.2,2.3c2.2,0,7.8-0.2,7.8-3.5c0-5.7-16.5-2.8-16.5-15.9
		c0-9.4,10.9-13.1,20.2-13.1c3.5,0,8.3,0.8,13.3,2.4l-2.9,9c-3.5-1.5-6.9-2.2-11-2.2c-3.1,0-6.4,0.7-6.4,3.4
		c0,4.4,17.2,4.1,17.2,14.2c0,9.9-8.4,14.8-18.7,15c-6.1,0.1-12.5-0.8-16.8-2.1L952.2,90z"/>
	<path id="svg_12_1_" class="st1" d="M1012,90.9c6.5,0,10.4-6.2,10.4-12.4c0-4.9-2.2-8.2-6.6-8.2c-6.5,0-10.4,7.2-10.4,12.5
		C1005.5,86.8,1007.4,90.9,1012,90.9 M986.9,100.6c0.9-2.5,1.8-6,2.8-10l10.6-47.5h13.6l-5,22.4h0.2c3.5-3.7,7.7-5.8,12.9-5.8
		c9.8,0,14.9,7.5,14.9,16.5c0,13.1-6.6,25.3-21,25.3c-6.8,0-11.4-2.8-13.9-8.4h-0.2l-2,7.5H986.9"/>
	<path id="svg_13_1_" class="st1" d="M1058.1,92.3c5.9,0,9.4-4.1,10.4-9.4c-1.2-0.2-2.8-0.2-3.7-0.2c-6.6-0.2-11.4,2.1-11.4,5.7
		C1053.4,90.1,1055.2,92.3,1058.1,92.3 M1067.3,95l-0.2-0.2V95c-2.9,4.6-8,6.5-13.4,6.5c-8.6,0-13.3-3.8-13.3-11.6
		c0-9.8,9.8-14.6,22-14.6c2.8,0,5.5,0.2,7.4,0.4c0.2-0.5,0.2-1.1,0.2-1.6c0-2.8-2.8-5.1-7.4-5.1c-5,0-8.3,0.8-13,3.1l1.4-10
		c4.1-1.4,8.4-2.3,14.6-2.3c9.5,0,17.3,3.8,17.3,13.6c0,6.3-3.5,15.2-5.1,27.3h-11.3L1067.3,95"/>
	<polygon id="svg_14_1_" class="st1" points="802.1,57.6 788.8,57.6 791.1,47 832.3,47 830,57.6 816.6,57.6 807.5,100.6 793,100.6 	
		"/>
	<path id="svg_15" class="st1" d="M839.6,60.6l-1.5,8.2h0.2c2.2-4.7,6.7-9.1,12.3-9.1c1.8,0,4,0.2,5.8,1l-3.1,12.2
		c-1.8-1.4-3.8-1.7-6.4-1.7c-5.8,0-9.3,5.1-10.3,11l-3.9,18.4h-13.8l6.2-29.5c0.7-3.4,1.3-6.8,1.7-10.4L839.6,60.6L839.6,60.6z"/>
	<path id="svg_16" class="st1" d="M871.3,92.3c5.9,0,9.4-4.1,10.4-9.4c-1.1-0.2-2.8-0.2-3.7-0.2c-6.6-0.2-11.4,2.1-11.4,5.7
		C866.6,90.1,868.4,92.3,871.3,92.3 M880.5,95l-0.1-0.2V95c-2.9,4.6-8.1,6.5-13.4,6.5c-8.6,0-13.3-3.8-13.3-11.6
		c0-9.8,9.8-14.6,22-14.6c2.8,0,5.5,0.2,7.4,0.4c0.1-0.5,0.1-1.1,0.1-1.6c0-2.8-2.8-5.1-7.4-5.1c-5,0-8.4,0.8-13,3.1l1.4-10
		c4.1-1.4,8.4-2.3,14.6-2.3c9.5,0,17.3,3.8,17.3,13.6c0,6.3-3.5,15.2-5.1,27.3h-11.3L880.5,95"/>
</g>
</svg>
